PathFileType	4	(X/Y/Z)	Walk8.trc
DataRate	CameraRate	NumFrames	NumMarkers	Units	OrigDataRate	OrigDataStartFrame	OrigNumFrames
200.000000	200.000000	8	69	mm	200.000000	635	868
Frame#	Times		RCAR		LowerBodyModelVer		LMT5		LTB1		LACR1		LTB2		LFHD		LMT1		RUA1		LToe		RFHD		RASI		RElbow		LUA1		STRN		RACR1		RFA1		RTH3		CLAV		RBHD		LTH3		RWRU		LCAR		RTH2		RLFC		LTH1		RTH1		RBack		RTB2		RTB4		LTH2		RTB3		LFA1		LElbow		LWRR		LLFC		C7		RMT1		RTH4		LPSI		RToe		RTB1		LTB4		LWRU		LTH4		LElbowM		LTB3		RPSI		LMMAL		SACR		RLMAL		RMMAL		LBHD		RCAL		RMT5		RWRR		T10		LASI		LCAL		LHJC		MidPelvis		OPelvis		PELOrigin		RHJC		XPelvis		YPelvis		ZPelvis		LLMAL		RElbowM
			X1	Y1	Z1	X2	Y2	Z2	X3	Y3	Z3	X4	Y4	Z4	X5	Y5	Z5	X6	Y6	Z6	X7	Y7	Z7	X8	Y8	Z8	X9	Y9	Z9	X10	Y10	Z10	X11	Y11	Z11	X12	Y12	Z12	X13	Y13	Z13	X14	Y14	Z14	X15	Y15	Z15	X16	Y16	Z16	X17	Y17	Z17	X18	Y18	Z18	X19	Y19	Z19	X20	Y20	Z20	X21	Y21	Z21	X22	Y22	Z22	X23	Y23	Z23	X24	Y24	Z24	X25	Y25	Z25	X26	Y26	Z26	X27	Y27	Z27	X28	Y28	Z28	X29	Y29	Z29	X30	Y30	Z30	X31	Y31	Z31	X32	Y32	Z32	X33	Y33	Z33	X34	Y34	Z34	X35	Y35	Z35	X36	Y36	Z36	X37	Y37	Z37	X38	Y38	Z38	X39	Y39	Z39	X40	Y40	Z40	X41	Y41	Z41	X42	Y42	Z42	X43	Y43	Z43	X44	Y44	Z44	X45	Y45	Z45	X46	Y46	Z46	X47	Y47	Z47	X48	Y48	Z48	X49	Y49	Z49	X50	Y50	Z50	X51	Y51	Z51	X52	Y52	Z52	X53	Y53	Z53	X54	Y54	Z54	X55	Y55	Z55	X56	Y56	Z56	X57	Y57	Z57	X58	Y58	Z58	X59	Y59	Z59	X60	Y60	Z60	X61	Y61	Z61	X62	Y62	Z62	X63	Y63	Z63	X64	Y64	Z64	X65	Y65	Z65	X66	Y66	Z66	X67	Y67	Z67	X68	Y68	Z68	X69	Y69	Z69

635	3.175	-160.4	762.15	338.84	9	2014	4	-200.36	24.003	-14.139	-177.41	330.31	13.095	-128.07	1372	-119	-221.54	249.02	-40.742	-34.018	1592.6	-22.436	-171.76	30.419	66.615	-170.07	1183.3	282.95	-101.3	23.987	40.846	-22.22	1595.8	71.749	-29.658	967.16	184.92	-226.79	1066.6	305.03	-113.16	1199.1	-219.77	-14.061	1228.4	44.358	-140.49	1366.5	191.53	-234.36	920.06	321.36	1.396	588.69	223.28	-70.919	1333.1	35.16	-170.52	1540.8	107.7	-175.18	594.92	-108.98	-221.13	809.96	327.28	70.922	847.06	-250.4	15.987	690.86	242.68	33.526	513.87	202.71	-141.77	748.11	-177.68	-73.279	739.12	265.53	-265.57	1315.6	138.82	46.829	279.38	199.81	80.008	273.2	146.74	-102.81	669.9	-123.11	66.813	189.81	150.08	-71.162	948.91	-271.79	-131.27	1076.1	-262	34.907	881.77	-210.98	-197.35	474.9	-71.963	-207.71	1413	39.652	139.2	54.79	134.03	-36.832	662.4	243.14	-277.67	963.3	-1.7631	188.06	68.291	173.89	92.608	359.09	149.94	-200.77	246.78	16.783	-1.1897	853.72	-268.67	-158.96	674.35	-138.7	-168.77	1036.2	-196.74	-223.55	164.14	17.883	-274.45	962.29	88.293	-270.79	67.837	81.711	-276.06	962.8	43.265	16.978	77.793	169.97	45.735	85.656	91.635	-182.37	1529.6	-32.737	-37.941	38.527	122.32	122.39	68.121	193.37	-161.14	815.18	288.72	-282.6	1147.7	27.544	-26.834	955.9	-105.92	-349.57	39.116	30.964	-96.33	864.91	-56.465	-152.15	962.16	41.381	-28.246	961.53	39.497	-28.246	961.53	39.497	-98.25	872.57	141.31	51.749	961.2	40.287	-27.884	1041.5	36.404	-29.023	964.63	119.43	-283.36	62.972	-2.5195	-238.28	1039.3	210.83
636	3.18	-156.84	761.33	339.41	9	2014	4	-200.41	24.023	-13.967	-175.69	330.01	13.248	-122.11	1371.2	-118.69	-220.41	248.98	-40.458	-27.77	1591.5	-22.319	-171.57	30.4	66.684	-164.83	1182.5	283.15	-101.11	23.902	40.632	-15.958	1594.8	71.856	-23.314	966.32	185.16	-221.98	1066	305.05	-105.98	1198.7	-219.52	-8.003	1227.5	44.191	-134.39	1365.7	191.75	-230.14	919.48	321.35	7.362	587.8	222.67	-64.902	1332.2	35.259	-164.36	1540.1	107.85	-171.67	594.59	-108.77	-217.36	809.3	327.32	82.036	849.45	-249.47	22.571	689.82	242.29	39.243	512.83	202.03	-137.15	747.45	-177.63	-66.241	738.44	265.98	-259.57	1314.7	139.03	60.045	278.72	199.5	93.151	273.61	146.29	-98.789	668.95	-122.83	83.127	189.75	150	-61.46	949.2	-271.42	-123.22	1075.6	-262.01	45.433	883.79	-210.23	-194.79	474.71	-71.711	-201.73	1412.1	39.922	160.44	56.926	134.28	-30.337	661.62	243.04	-271.93	962.42	-0.84287	208.89	72.087	173.95	102.49	359.95	149.13	-199.48	246.61	16.966	9.823	854.99	-267.81	-154.89	673.87	-138.6	-160.55	1035.3	-196.87	-222.76	164.11	18.134	-268.27	961.45	89.201	-270.47	68.064	82.101	-270.1	961.94	44.179	37.448	75.996	170.23	65.854	84.717	91.878	-176.24	1528.8	-32.579	-16.153	34.932	122.69	143.25	69.846	193.37	-156.95	814.32	289.24	-276.68	1146.8	27.985	-21.354	954.79	-105.95	-349.45	39.682	31.529	-90.8	863.79	-56.156	-146.22	961.24	41.893	-22.334	960.55	39.607	-22.334	960.55	39.607	-92.133	871.63	141.79	57.663	960.18	40.16	-21.945	1040.5	36.444	-22.873	963.72	119.54	-283.22	63.274	-2.1158	-232.98	1038.7	210.78
637	3.185	-153.24	760.48	339.99	9	2014	4	-200.47	24.045	-13.775	-173.91	329.72	13.413	-116.17	1370.5	-118.37	-219.23	248.95	-40.152	-21.522	1590.5	-22.195	-171.37	30.382	66.764	-159.55	1181.7	283.38	-100.92	23.82	40.404	-9.6907	1593.8	71.97	-16.949	965.46	185.46	-217.11	1065.3	305.09	-98.832	1198.2	-219.26	-1.9245	1226.5	44.018	-128.28	1364.8	191.98	-225.86	918.87	321.37	13.164	586.75	222.14	-58.872	1331.3	35.369	-158.2	1539.3	108.02	-168.08	594.26	-108.55	-213.54	808.62	327.4	92.99	851.8	-248.54	29.08	688.63	241.83	44.821	511.65	201.44	-132.47	746.78	-177.57	-59.206	737.7	266.39	-253.54	1313.8	139.29	73.064	278.21	199.2	106.04	274.14	145.83	-94.71	668	-122.57	99.146	189.93	149.89	-51.858	949.46	-271.02	-115.21	1075.2	-261.97	55.828	885.77	-209.47	-192.15	474.53	-71.44	-195.74	1411.2	40.219	181.23	59.364	134.41	-23.927	660.72	242.96	-266.14	961.5	0.038618	229.27	76.102	173.87	112.16	360.82	148.33	-198.15	246.44	17.165	20.69	856.24	-266.93	-150.76	673.36	-138.48	-152.36	1034.4	-196.94	-221.94	164.09	18.409	-262.07	960.58	90.063	-270.12	68.312	82.521	-264.1	961.04	45.051	57.618	74.587	170.45	85.613	84.157	92.084	-170.13	1528	-32.402	5.3315	31.807	123.06	163.75	71.825	193.27	-152.75	813.41	289.76	-270.75	1145.9	28.442	-15.818	953.66	-105.93	-349.31	40.291	32.139	-85.217	862.64	-55.817	-140.24	960.3	42.407	-16.384	959.56	39.763	-16.384	959.56	39.763	-85.986	870.67	142.33	63.615	959.17	40.089	-15.976	1039.5	36.527	-16.694	962.8	119.7	-283.07	63.606	-1.6794	-227.62	1038	210.75
638	3.19	-149.59	759.58	340.56	9	2014	4	-200.53	24.072	-13.565	-172.06	329.42	13.591	-110.23	1369.7	-118.03	-218.02	248.93	-39.825	-15.274	1589.3	-22.065	-171.16	30.365	66.852	-154.23	1180.9	283.63	-100.73	23.74	40.167	-3.4164	1592.7	72.091	-10.558	964.6	185.81	-212.19	1064.6	305.16	-91.736	1197.7	-218.99	4.1725	1225.5	43.844	-122.14	1363.9	192.23	-221.51	918.23	321.42	18.817	585.54	221.69	-52.828	1330.3	35.492	-152.03	1538.6	108.2	-164.44	593.92	-108.33	-209.65	807.92	327.53	103.78	854.11	-247.63	35.515	687.29	241.32	50.288	510.34	200.95	-127.72	746.09	-177.5	-52.179	736.89	266.77	-247.5	1312.8	139.59	85.861	277.85	198.9	118.67	274.78	145.37	-90.567	667.06	-122.31	114.83	190.32	149.77	-42.357	949.71	-270.6	-107.26	1074.7	-261.9	66.09	887.71	-208.72	-189.44	474.34	-71.149	-189.74	1410.3	40.544	201.52	62.072	134.43	-17.596	659.72	242.93	-260.3	960.54	0.88348	249.17	80.298	173.64	121.62	361.69	147.53	-196.78	246.28	17.38	31.41	857.46	-266.03	-146.56	672.84	-138.35	-144.2	1033.5	-196.96	-221.09	164.08	18.707	-255.84	959.66	90.881	-269.74	68.581	82.965	-258.07	960.1	45.882	77.419	73.556	170.63	104.95	83.957	92.248	-164.01	1527.2	-32.204	26.433	29.14	123.41	183.84	74.032	193.07	-148.55	812.47	290.27	-264.8	1145	28.915	-10.225	952.52	-105.9	-349.17	40.945	32.788	-79.576	861.46	-55.451	-134.23	959.33	42.921	-10.392	958.56	39.959	-10.392	958.56	39.959	-79.803	869.68	142.91	69.607	958.15	40.068	-9.9746	1038.5	36.651	-10.483	961.87	119.89	-282.92	63.97	-1.2146	-222.22	1037.3	210.75
639	3.195	-145.89	758.65	341.12	9	2014	4	-200.6	24.102	-13.34	-170.16	329.11	13.784	-104.31	1368.9	-117.67	-216.77	248.93	-39.479	-9.0255	1588.2	-21.927	-170.96	30.35	66.949	-148.86	1180	283.9	-100.53	23.663	39.923	2.8647	1591.6	72.221	-4.1384	963.73	186.21	-207.2	1063.9	305.25	-84.693	1197.2	-218.7	10.286	1224.5	43.673	-115.98	1363	192.5	-217.1	917.56	321.5	24.339	584.2	221.37	-46.772	1329.4	35.628	-145.86	1537.8	108.41	-160.72	593.57	-108.1	-205.7	807.19	327.7	114.41	856.37	-246.73	41.878	685.81	240.75	55.676	508.91	200.56	-122.91	745.38	-177.42	-45.166	736.02	267.1	-241.43	1311.8	139.93	98.414	277.65	198.61	131	275.53	144.89	-86.359	666.12	-122.05	130.14	190.93	149.62	-32.959	949.93	-270.15	-99.354	1074.2	-261.79	76.217	889.61	-207.96	-186.65	474.16	-70.836	-183.75	1409.4	40.897	221.24	65.009	134.32	-11.338	658.63	242.94	-254.42	959.53	1.6947	268.51	84.631	173.27	130.88	362.57	146.74	-195.36	246.13	17.612	41.983	858.64	-265.1	-142.3	672.29	-138.2	-136.09	1032.6	-196.93	-220.22	164.09	19.024	-249.6	958.71	91.658	-269.34	68.872	83.429	-252.01	959.12	46.676	96.783	72.883	170.77	123.79	84.093	92.371	-157.9	1526.4	-31.985	47.075	26.912	123.75	203.46	76.431	192.78	-144.35	811.48	290.77	-258.84	1144.1	29.406	-4.575	951.38	-105.83	-349.02	41.647	33.466	-73.874	860.27	-55.062	-128.18	958.34	43.434	-4.3567	957.56	40.191	-4.3567	957.56	40.191	-73.578	868.67	143.53	75.642	957.14	40.089	-3.9403	1037.5	36.81	-4.2372	960.94	120.12	-282.77	64.367	-0.72759	-216.77	1036.6	210.77
640	3.2	-142.14	757.67	341.68	9	2014	4	-200.68	24.138	-13.105	-168.2	328.81	13.991	-98.393	1368.1	-117.3	-215.49	248.94	-39.117	-2.7775	1587	-21.78	-170.75	30.337	67.052	-143.44	1179.1	284.19	-100.34	23.588	39.675	9.1527	1590.4	72.359	2.313	962.87	186.64	-202.15	1063.1	305.36	-77.707	1196.7	-218.39	16.414	1223.5	43.511	-109.79	1362	192.79	-212.61	916.86	321.61	29.752	582.72	221.16	-40.702	1328.4	35.779	-139.68	1537	108.64	-156.95	593.22	-107.86	-201.69	806.43	327.91	124.88	858.57	-245.83	48.174	684.21	240.13	61.017	507.4	200.27	-118.04	744.67	-177.32	-38.173	735.1	267.37	-235.33	1310.7	140.31	110.7	277.58	198.33	143.03	276.37	144.41	-82.086	665.19	-121.81	145.03	191.71	149.45	-23.665	950.14	-269.68	-91.501	1073.6	-261.64	86.21	891.45	-207.2	-183.8	473.98	-70.503	-177.75	1408.4	41.279	240.33	68.13	134.09	-5.1431	657.44	243.01	-248.48	958.49	2.4758	287.27	89.051	172.77	139.95	363.44	145.96	-193.9	245.98	17.855	52.408	859.78	-264.16	-137.97	671.72	-138.04	-128.02	1031.7	-196.85	-219.32	164.1	19.357	-243.33	957.72	92.397	-268.91	69.185	83.905	-245.91	958.11	47.436	115.64	72.543	170.88	142.08	84.53	92.449	-151.79	1525.5	-31.744	67.179	25.098	124.07	222.55	78.982	192.41	-140.15	810.45	291.26	-252.85	1143.1	29.914	1.1321	950.24	-105.74	-348.86	42.401	34.161	-68.109	859.06	-54.652	-122.09	957.33	43.945	1.7225	956.55	40.453	1.7225	956.55	40.453	-67.306	867.64	144.17	81.721	956.14	40.148	2.1272	1036.5	37	2.0453	960	120.38	-282.61	64.8	-0.22562	-211.27	1035.8	210.83
641	3.205	-138.33	756.67	342.23	9	2014	4	-200.76	24.181	-12.862	-166.17	328.5	14.209	-92.49	1367.3	-116.92	-214.15	248.97	-38.744	3.4702	1585.8	-21.623	-170.55	30.328	67.161	-137.97	1178.2	284.51	-100.15	23.514	39.427	15.448	1589.3	72.506	8.7976	962	187.1	-197.02	1062.3	305.49	-70.78	1196.2	-218.07	22.554	1222.4	43.363	-103.59	1361	193.1	-208.05	916.14	321.75	35.081	581.13	221.1	-34.62	1327.3	35.946	-133.49	1536.2	108.89	-153.11	592.87	-107.61	-197.62	805.66	328.17	135.18	860.72	-244.94	54.408	682.51	239.47	66.343	505.82	200.08	-113.1	743.94	-177.21	-31.203	734.13	267.59	-229.22	1309.7	140.73	122.7	277.64	198.05	154.74	277.27	143.92	-77.746	664.26	-121.56	159.48	192.64	149.26	-14.479	950.32	-269.18	-83.701	1073.1	-261.47	96.066	893.24	-206.43	-180.86	473.8	-70.151	-171.75	1407.4	41.691	258.75	71.381	133.75	0.99932	656.18	243.14	-242.5	957.42	3.2308	305.39	93.505	172.15	148.82	364.3	145.19	-192.4	245.84	18.108	62.685	860.87	-263.2	-133.58	671.14	-137.86	-119.99	1030.8	-196.72	-218.39	164.13	19.7	-237.05	956.7	93.104	-268.46	69.522	84.386	-239.77	957.06	48.167	133.94	72.503	170.96	159.77	85.228	92.483	-145.68	1524.7	-31.48	86.671	23.664	124.36	241.07	81.64	191.94	-135.93	809.38	291.74	-246.84	1142.1	30.439	6.8936	949.11	-105.62	-348.7	43.206	34.861	-62.279	857.85	-54.225	-115.96	956.31	44.452	7.8456	955.55	40.738	7.8456	955.55	40.738	-60.985	866.61	144.82	87.843	955.15	40.235	8.2276	1035.5	37.215	8.3655	959.07	120.66	-282.44	65.269	0.28306	-205.73	1035	210.92
642	3.21	-134.46	755.62	342.77	9	2014	4	-200.84	24.23	-12.616	-164.08	328.18	14.436	-86.598	1366.4	-116.53	-212.78	249.02	-38.364	9.7174	1584.6	-21.456	-170.36	30.324	67.272	-132.44	1177.2	284.84	-99.971	23.441	39.18	21.752	1588.1	72.664	15.316	961.13	187.56	-191.82	1061.4	305.64	-63.915	1195.6	-217.73	28.704	1221.4	43.232	-97.363	1360	193.43	-203.42	915.38	321.93	40.354	579.45	221.19	-28.526	1326.3	36.129	-127.3	1535.4	109.16	-149.2	592.51	-107.34	-193.48	804.86	328.47	145.32	862.81	-244.05	60.59	680.73	238.77	71.688	504.2	199.98	-108.1	743.2	-177.09	-24.258	733.13	267.76	-223.08	1308.6	141.18	134.39	277.8	197.78	166.11	278.22	143.43	-73.34	663.34	-121.31	173.45	193.69	149.04	-5.4002	950.48	-268.66	-75.958	1072.5	-261.25	105.78	894.97	-205.66	-177.85	473.62	-69.782	-165.73	1406.4	42.135	276.44	74.705	133.3	7.1034	654.85	243.34	-236.46	956.32	3.964	322.83	97.934	171.4	157.51	365.13	144.44	-190.85	245.7	18.364	72.811	861.92	-262.23	-129.12	670.55	-137.66	-112.01	1029.9	-196.54	-217.43	164.18	20.046	-230.74	955.66	93.784	-268	69.883	84.862	-233.6	955.99	48.874	151.6	72.723	170.99	176.79	86.141	92.473	-139.58	1523.8	-31.193	105.48	22.571	124.63	258.96	84.358	191.4	-131.69	808.29	292.21	-240.8	1141.1	30.982	12.706	947.98	-105.49	-348.53	44.067	35.552	-56.387	856.63	-53.786	-109.8	955.27	44.957	14.011	954.55	41.039	14.011	954.55	41.039	-54.612	865.57	145.49	94.007	954.17	40.343	14.36	1034.5	37.45	14.723	958.14	120.96	-282.27	65.775	0.78942	-200.14	1034.2	211.03
